<svg width="16" height="16" viewBox="0 0 16 16" fill="none" xmlns="http://www.w3.org/2000/svg">
<path d="M8.34998 9.19998L12.3166 5.24998L11.4666 4.39998L8.34998 7.49998L6.93331 6.09998L6.08331 6.94998L8.34998 9.19998ZM5.19998 12C4.86998 12 4.58748 11.8825 4.35248 11.6475C4.11748 11.4125 3.99998 11.13 3.99998 10.8V2.79998C3.99998 2.46998 4.11748 2.18748 4.35248 1.95248C4.58748 1.71748 4.86998 1.59998 5.19998 1.59998H13.2C13.53 1.59998 13.8125 1.71748 14.0475 1.95248C14.2825 2.18748 14.4 2.46998 14.4 2.79998V10.8C14.4 11.13 14.2825 11.4125 14.0475 11.6475C13.8125 11.8825 13.53 12 13.2 12H5.19998ZM5.19998 10.8H13.2V2.79998H5.19998V10.8ZM2.79998 14.4C2.46998 14.4 2.18748 14.2825 1.95248 14.0475C1.71748 13.8125 1.59998 13.53 1.59998 13.2V3.99998H2.79998V13.2H12V14.4H2.79998Z" fill="#30232C"/>
</svg>
