<svg width="18" height="18" viewBox="0 0 18 18" fill="none" xmlns="http://www.w3.org/2000/svg">
<path d="M9 15C8.5875 15 8.23438 14.8531 7.94063 14.5594C7.64687 14.2656 7.5 13.9125 7.5 13.5C7.5 13.0875 7.64687 12.7344 7.94063 12.4406C8.23438 12.1469 8.5875 12 9 12C9.4125 12 9.76563 12.1469 10.0594 12.4406C10.3531 12.7344 10.5 13.0875 10.5 13.5C10.5 13.9125 10.3531 14.2656 10.0594 14.5594C9.76563 14.8531 9.4125 15 9 15ZM9 10.5C8.5875 10.5 8.23438 10.3531 7.94063 10.0594C7.64687 9.76563 7.5 9.4125 7.5 9C7.5 8.5875 7.64687 8.23438 7.94063 7.94063C8.23438 7.64688 8.5875 7.5 9 7.5C9.4125 7.5 9.76563 7.64688 10.0594 7.94063C10.3531 8.23438 10.5 8.5875 10.5 9C10.5 9.4125 10.3531 9.76563 10.0594 10.0594C9.76563 10.3531 9.4125 10.5 9 10.5ZM9 6C8.5875 6 8.23438 5.85313 7.94063 5.55938C7.64687 5.26563 7.5 4.9125 7.5 4.5C7.5 4.0875 7.64687 3.73438 7.94063 3.44063C8.23438 3.14687 8.5875 3 9 3C9.4125 3 9.76563 3.14687 10.0594 3.44063C10.3531 3.73438 10.5 4.0875 10.5 4.5C10.5 4.9125 10.3531 5.26563 10.0594 5.55938C9.76563 5.85313 9.4125 6 9 6Z" fill="black"/>
</svg>
