<svg width="16" height="17" viewBox="0 0 16 17" fill="none" xmlns="http://www.w3.org/2000/svg">
<path d="M10.7956 14.1C10.4652 14.1 10.1833 13.9824 9.94998 13.747C9.71664 13.5118 9.59998 13.229 9.59998 12.8985V10.4957C9.59998 10.1652 9.71764 9.88336 9.95298 9.65002C10.1882 9.41669 10.471 9.30002 10.8015 9.30002H13.2043C13.5348 9.30002 13.8166 9.41769 14.05 9.65302C14.2833 9.88825 14.4 10.1711 14.4 10.5015V12.9044C14.4 13.2348 14.2823 13.5167 14.047 13.75C13.8118 13.9834 13.5289 14.1 13.1985 14.1H10.7956ZM10.8 12.9H13.2V10.5H10.8V12.9ZM1.59998 12.3V11.1H7.99998V12.3H1.59998ZM10.7956 7.70002C10.4652 7.70002 10.1833 7.58236 9.94998 7.34702C9.71664 7.1118 9.59998 6.82897 9.59998 6.49852V4.09569C9.59998 3.76525 9.71764 3.48336 9.95298 3.25002C10.1882 3.01669 10.471 2.90002 10.8015 2.90002H13.2043C13.5348 2.90002 13.8166 3.01769 14.05 3.25302C14.2833 3.48825 14.4 3.77108 14.4 4.10152V6.50436C14.4 6.8348 14.2823 7.11669 14.047 7.35002C13.8118 7.58336 13.5289 7.70002 13.1985 7.70002H10.7956ZM10.8 6.50002H13.2V4.10002H10.8V6.50002ZM1.59998 5.90002V4.70002H7.99998V5.90002H1.59998Z" fill="white"/>
</svg>
