<svg width="16" height="17" viewBox="0 0 16 17" fill="none" xmlns="http://www.w3.org/2000/svg">
<path d="M6.40386 12.1C5.95686 12.1 5.5778 11.9457 5.26669 11.6371C4.95558 11.3285 4.80002 10.9507 4.80002 10.5038C4.80002 10.0568 4.9543 9.67775 5.26286 9.36664C5.57152 9.05553 5.9493 8.89998 6.39619 8.89998C6.84319 8.89998 7.22225 9.05425 7.53336 9.36281C7.84447 9.67148 8.00002 10.0493 8.00002 10.4961C8.00002 10.9431 7.84575 11.3222 7.53719 11.6333C7.22852 11.9444 6.85075 12.1 6.40386 12.1ZM3.60002 14.9C3.27002 14.9 2.98752 14.7805 2.75252 14.5416C2.51752 14.3028 2.40002 14.0222 2.40002 13.7V4.89998C2.40002 4.57775 2.51752 4.2972 2.75252 4.05831C2.98752 3.81942 3.27002 3.69998 3.60002 3.69998H4.80002V2.09998H6.00002V3.69998H10V2.09998H11.2V3.69998H12.4C12.73 3.69998 13.0125 3.81942 13.2475 4.05831C13.4825 4.2972 13.6 4.57775 13.6 4.89998V13.7C13.6 14.0222 13.4825 14.3028 13.2475 14.5416C13.0125 14.7805 12.73 14.9 12.4 14.9H3.60002ZM3.60002 13.7H12.4V7.69998H3.60002V13.7ZM3.60002 6.49998H12.4V4.89998H3.60002V6.49998Z" fill="white"/>
</svg>
