<svg width="16" height="17" viewBox="0 0 16 17" fill="none" xmlns="http://www.w3.org/2000/svg">
<path d="M8.34998 9.69998L12.3166 5.74998L11.4666 4.89998L8.34998 7.99998L6.93331 6.59998L6.08331 7.44998L8.34998 9.69998ZM5.19998 12.5C4.86998 12.5 4.58748 12.3825 4.35248 12.1475C4.11748 11.9125 3.99998 11.63 3.99998 11.3V3.29998C3.99998 2.96998 4.11748 2.68748 4.35248 2.45248C4.58748 2.21748 4.86998 2.09998 5.19998 2.09998H13.2C13.53 2.09998 13.8125 2.21748 14.0475 2.45248C14.2825 2.68748 14.4 2.96998 14.4 3.29998V11.3C14.4 11.63 14.2825 11.9125 14.0475 12.1475C13.8125 12.3825 13.53 12.5 13.2 12.5H5.19998ZM5.19998 11.3H13.2V3.29998H5.19998V11.3ZM2.79998 14.9C2.46998 14.9 2.18748 14.7825 1.95248 14.5475C1.71748 14.3125 1.59998 14.03 1.59998 13.7V4.49998H2.79998V13.7H12V14.9H2.79998Z" fill="white"/>
</svg>
